<?xml version="1.0" encoding="utf-8"?>
<!-- Generator: Adobe Illustrator 16.0.0, SVG Export Plug-In . SVG Version: 6.00 Build 0)  -->
<!DOCTYPE svg PUBLIC "-//W3C//DTD SVG 1.1//EN" "http://www.w3.org/Graphics/SVG/1.1/DTD/svg11.dtd">
<svg version="1.1" id="Layer_1" xmlns="http://www.w3.org/2000/svg" xmlns:xlink="http://www.w3.org/1999/xlink" x="0px" y="0px"
	 width="800px" height="230px" viewBox="0 0 800 230" enable-background="new 0 0 800 230" xml:space="preserve">
<g>
	<g>
		<defs>
			<path id="SVGID_1_" d="M150.673,202.637c-13.225,6.402-30.493,9.602-51.802,9.602c-27.796,0-49.655-8.169-65.574-24.511
				c-15.92-16.341-23.88-38.113-23.88-65.321c0-28.976,8.949-52.476,26.849-70.502c17.897-18.024,41.126-27.039,69.68-27.039
				c17.688,0,32.598,2.233,44.727,6.696v39.294c-12.129-7.243-25.945-10.866-41.442-10.866c-17.016,0-30.746,5.35-41.189,16.046
				C57.597,86.734,52.375,101.223,52.375,119.5c0,17.521,4.928,31.482,14.783,41.884c9.855,10.404,23.122,15.604,39.799,15.604
				c15.92,0,30.491-3.874,43.716-11.624V202.637z M227.063,212.238c-21.563,0-38.516-6.042-50.854-18.13
				c-12.341-12.086-18.51-28.492-18.51-49.213c0-21.394,6.4-38.135,19.205-50.223c12.803-12.086,30.112-18.131,51.929-18.131
				c21.479,0,38.325,6.045,50.539,18.131c12.212,12.088,18.32,28.071,18.32,47.948c0,21.479-6.298,38.453-18.889,50.918
				C266.208,206.006,248.962,212.238,227.063,212.238z M228.074,107.118c-9.435,0-16.763,3.244-21.985,9.729
				c-5.224,6.487-7.833,15.667-7.833,27.544c0,24.849,10.023,37.272,30.071,37.272c19.12,0,28.681-12.762,28.681-38.283
				C257.007,119.205,247.361,107.118,228.074,107.118z M395.054,115.709c-4.801-2.61-10.404-3.917-16.804-3.917
				c-8.676,0-15.458,3.181-20.342,9.54c-4.886,6.361-7.328,15.016-7.328,25.964v61.784h-39.926V79.701h39.926v24.006h0.505
				c6.317-17.519,17.688-26.28,34.114-26.28c4.211,0,7.496,0.505,9.855,1.516V115.709z M441.12,194.045h-0.506v15.035h-39.925
				V17.538h39.925v81.621h0.506c9.855-15.077,23.881-22.616,42.074-22.616c16.678,0,29.521,5.729,38.535,17.183
				c9.014,11.456,13.52,27.123,13.52,47.001c0,21.563-5.266,38.873-15.793,51.929c-10.531,13.057-24.596,19.583-42.199,19.583
				C461.337,212.238,449.29,206.174,441.12,194.045z M439.983,139.463v13.267c0,8.339,2.4,15.246,7.201,20.721
				c4.803,5.477,10.949,8.213,18.447,8.213c9.098,0,16.15-3.517,21.164-10.551c5.01-7.031,7.518-16.993,7.518-29.881
				c0-10.696-2.297-19.057-6.887-25.079c-4.592-6.022-11.141-9.035-19.646-9.035c-8.004,0-14.637,2.991-19.9,8.97
				C442.614,122.07,439.983,129.86,439.983,139.463z M671.148,209.08h-39.8v-19.71h-0.632
				c-9.854,15.246-23.038,22.868-39.546,22.868c-29.988,0-44.98-18.15-44.98-54.455V79.701h39.8v74.544
				c0,18.279,7.243,27.418,21.731,27.418c7.158,0,12.888-2.506,17.184-7.518c4.296-5.011,6.443-11.813,6.443-20.405v-74.04h39.8
				V209.08z M794.286,209.08H678.173v-16.552l64.943-83.389h-58.499V79.701h109.164v19.71l-61.531,80.231h62.036V209.08z"/>
		</defs>
		<use xlink:href="#SVGID_1_"  overflow="visible" fill="#FFFFFF"/>
		<clipPath id="SVGID_2_">
			<use xlink:href="#SVGID_1_"  overflow="visible"/>
		</clipPath>
		<rect x="0.067" y="9.216" clip-path="url(#SVGID_2_)" fill="#FFFFFF" width="800.933" height="211.074"/>
	</g>
	<g>
		<defs>
			<path id="SVGID_3_" d="M254.491,43.854c0,13.16-10.669,23.817-23.815,23.817c-13.147,0-23.814-10.657-23.814-23.817
				c0-13.156,10.667-23.813,23.814-23.813C243.822,20.042,254.491,30.698,254.491,43.854z"/>
		</defs>
		<use xlink:href="#SVGID_3_"  overflow="visible" fill="#FFFFFF"/>
		<clipPath id="SVGID_4_">
			<use xlink:href="#SVGID_3_"  overflow="visible"/>
		</clipPath>
		<rect x="109.895" y="-5.892" clip-path="url(#SVGID_4_)" fill="#FFFFFF" width="447.292" height="154.597"/>
	</g>
</g>
</svg>
